<?xml version="1.0" encoding="UTF-8"?>
<svg version="1.1" xmlns="http://www.w3.org/2000/svg" width="512" height="512">
<path d="M0 0 C168.96 0 337.92 0 512 0 C512 168.96 512 337.92 512 512 C343.04 512 174.08 512 0 512 C0 343.04 0 174.08 0 0 Z " fill="#0A0C0C" transform="translate(0,0)"/>
<path d="M0 0 C0.33 0 0.66 0 1 0 C1 124.74 1 249.48 1 378 C-167.96 378 -336.92 378 -511 378 C-511 301.77 -511 225.54 -511 147 C-510.67 147 -510.34 147 -510 147 C-509.74476563 148.23363281 -509.74476563 148.23363281 -509.484375 149.4921875 C-505.45890728 168.03503351 -498.05977141 180.47116969 -481.9375 191 C-477.9141264 192.3696591 -474.2082571 192.25249543 -470 192 C-470.48324819 186.84535266 -473.18610761 183.18449681 -476 179 C-474.68 178.67 -473.36 178.34 -472 178 C-471.773125 176.72125 -471.54625 175.4425 -471.3125 174.125 C-470.92578125 171.9453125 -470.92578125 171.9453125 -470 170 C-467.525 169.01 -467.525 169.01 -465 168 C-465 164.37 -465 160.74 -465 157 C-463.02 157.33 -461.04 157.66 -459 158 C-455.65464896 152.98197344 -456.88583029 147.71011977 -458 142 C-456.02 141.01 -456.02 141.01 -454 140 C-453.15716731 125.32846794 -458.78271775 114.14028052 -467.875 102.875 C-472.64404543 96.62924507 -472.64404543 96.62924507 -472.9375 92.25 C-471.77468863 84.2592756 -464.36089485 78.03492575 -459 72.4375 C-457.68456542 71.05109467 -456.36947022 69.66436728 -455.0546875 68.27734375 C-454.38791992 67.57593262 -453.72115234 66.87452148 -453.03417969 66.15185547 C-450.99063179 63.99008984 -448.9651147 61.81286025 -446.9453125 59.62890625 C-445.98238281 58.58875366 -445.98238281 58.58875366 -445 57.52758789 C-443.76651509 56.19372172 -442.53469562 54.85831317 -441.3046875 53.52124023 C-439.88957342 51.99557037 -438.44761522 50.49486675 -437 49 C-436.67 49 -436.34 49 -436 49 C-435.97494385 50.25433838 -435.9498877 51.50867676 -435.92407227 52.80102539 C-435.82876638 57.52571083 -435.72886439 62.2502905 -435.62768555 66.97485352 C-435.58479602 69.00640359 -435.54309654 71.03797919 -435.50268555 73.06958008 C-435.24915045 86.79941023 -435.24915045 86.79941023 -434.48828125 100.5078125 C-432.52278585 127.35599808 -432.08464184 154.87028335 -439 181 C-439.53668443 183.15101305 -440.06452048 185.30409372 -440.5919342 187.45739746 C-443.97580561 201.24986068 -447.5558977 214.93670545 -451.88745117 228.46459961 C-456.75579282 242.01042783 -456.75579282 242.01042783 -454.67578125 255.56640625 C-450.40323981 262.00882267 -445.39053492 266.73964338 -439 271 C-434.55918719 271.63757913 -430.43394945 271.76943629 -426.4375 269.625 C-424.24134127 265.61462319 -424.17222101 261.51219048 -424 257 C-423.01 257.33 -422.02 257.66 -421 258 C-420.375 259.99609375 -420.375 259.99609375 -420 262.4375 C-419.68428381 264.8428046 -419.68428381 264.8428046 -419 267 C-414.65976469 269.89349021 -411.09337042 269.79519646 -406 269 C-400.06016235 266.75525154 -393.99241506 264.09829529 -390 259 C-389.51973083 256.4149692 -389.51973083 256.4149692 -389.75 253.75 C-389.78609375 252.85796875 -389.8221875 251.9659375 -389.859375 251.046875 C-389.90578125 250.37140625 -389.9521875 249.6959375 -390 249 C-388.68677212 249.97819024 -387.37443848 250.9575811 -386.0625 251.9375 C-385.33160156 252.48277344 -384.60070312 253.02804687 -383.84765625 253.58984375 C-382 255 -382 255 -381 256 C-372.10265258 255.62138947 -364.35324638 251.02743888 -358 245 C-353.31709452 235.63418904 -357.8945384 221.25817351 -359.9375 211.625 C-360.07664825 210.96809174 -360.21579651 210.31118347 -360.35916138 209.6343689 C-361.62017913 202.63314107 -361.62017913 202.63314107 -364 196 C-364.67556906 191.26889616 -365.10069664 186.50625716 -365.5625 181.75 C-365.63069946 181.05580963 -365.69889893 180.36161926 -365.76916504 179.64639282 C-368.93872098 146.87744197 -368.93872098 146.87744197 -366 141 C-365.42894531 141.18175781 -364.85789062 141.36351562 -364.26953125 141.55078125 C-358.15734602 143.44565584 -352.08667743 144.83432465 -345.78515625 145.9609375 C-343 147 -343 147 -341.14453125 149.13671875 C-339.74185934 152.64579217 -339.55147254 155.71752346 -339.625 159.4375 C-339.63805176 160.5819458 -339.63805176 160.5819458 -339.65136719 161.74951172 C-340.61331036 202.44286192 -350.09851726 238.66139597 -365.69067383 275.85986328 C-369.09630483 283.66172964 -369.09630483 283.66172964 -369 292 C-366.98119541 294.77023837 -366.98119541 294.77023837 -364 297 C-363.20335937 297.74056641 -363.20335937 297.74056641 -362.390625 298.49609375 C-357.27079014 303.20493269 -352.23231022 306.5690253 -345.25 307.5 C-342.0278728 307.21190689 -342.0278728 307.21190689 -339.6875 305.625 C-337.17041562 301.7095354 -336.66093407 297.55696646 -336 293 C-335.01 293.33 -334.02 293.66 -333 294 C-332.0859375 296.43359375 -332.0859375 296.43359375 -331.375 299.4375 C-330.47854964 303.3254339 -330.47854964 303.3254339 -329 307 C-323.44019107 306.48338059 -318.67082462 305.41498709 -313.5 303.25 C-312.85144043 302.98485596 -312.20288086 302.71971191 -311.53466797 302.4465332 C-306.46675791 300.32019509 -300.94878839 297.94878839 -297 294 C-296.26499616 282.97392719 -297.59004332 272.08131573 -298.90908813 261.15325928 C-299.50382971 256.19738116 -300.06058945 251.23719096 -300.62109375 246.27734375 C-300.7366008 245.25896423 -300.85210785 244.24058472 -300.97111511 243.19134521 C-303.71685988 218.88922724 -306.33180726 194.60306183 -306.5 170.125 C-306.51566513 169.01859161 -306.51566513 169.01859161 -306.53164673 167.88983154 C-306.55487111 165.8241763 -306.54880492 163.76097884 -306.53125 161.6953125 C-306.52673828 160.54047363 -306.52222656 159.38563477 -306.51757812 158.19580078 C-305.88476158 154.28845712 -304.43839552 152.0821456 -302 149 C-298.61214914 147.30607457 -294.85461332 147.20525796 -291.125 146.75 C-290.30902344 146.63398438 -289.49304688 146.51796875 -288.65234375 146.3984375 C-287.46705078 146.25535156 -287.46705078 146.25535156 -286.2578125 146.109375 C-285.17717529 145.96967285 -285.17717529 145.96967285 -284.07470703 145.82714844 C-281.22078808 146.06491904 -280.03115674 147.01379844 -278 149 C-277.13452148 151.02685547 -277.13452148 151.02685547 -276.62109375 153.3671875 C-276.42354492 154.24294434 -276.22599609 155.11870117 -276.02246094 156.02099609 C-275.82942383 156.96281738 -275.63638672 157.90463867 -275.4375 158.875 C-275.22770508 159.84646973 -275.01791016 160.81793945 -274.80175781 161.81884766 C-272.86330566 171.07055113 -271.45493459 180.38902069 -270.28198242 189.76586914 C-270.02118774 191.83213071 -269.73251765 193.89482251 -269.44140625 195.95703125 C-266.42407709 220.58529196 -271.38849392 245.41247433 -277.73046875 269.11328125 C-278.69334873 272.72850119 -279.48937689 276.28837397 -280 280 C-280.13664063 280.83402344 -280.27328125 281.66804688 -280.4140625 282.52734375 C-280.75115669 286.37895699 -280.83473524 288.93998681 -278.37890625 292.05859375 C-272.08069169 297.27903897 -264.62615149 300.32710524 -256.5625 301.5 C-253.93391501 301.13651464 -253.93391501 301.13651464 -251.6875 299.625 C-249.14605774 295.67164537 -249.17623376 291.61732442 -249 287 C-248.34 287 -247.68 287 -247 287 C-246.79503906 287.85464844 -246.59007812 288.70929688 -246.37890625 289.58984375 C-246.10949219 290.69457031 -245.84007812 291.79929687 -245.5625 292.9375 C-245.16224609 294.59072266 -245.16224609 294.59072266 -244.75390625 296.27734375 C-244.27004275 298.89421254 -244.27004275 298.89421254 -243 300 C-235.88504052 301.08271122 -230.84704464 297.81053529 -225 294 C-219.70247753 289.58539794 -217.10632991 284.76229323 -216 278 C-215.41003376 268.47154055 -216.55112655 259.00684566 -217.6875 249.5625 C-217.77647552 248.8139978 -217.86545105 248.06549561 -217.9571228 247.29431152 C-220.39053832 227.09413789 -225.55987633 208.2812892 -232 189 C-228.70586155 190.07574209 -225.43611544 191.19713346 -222.1875 192.40234375 C-204.6926236 198.85034812 -187.91862067 201.25241194 -169.3125 201.3125 C-168.53743103 201.31511841 -167.76236206 201.31773682 -166.96380615 201.32043457 C-153.95490319 201.32513153 -141.64139444 200.26220213 -129 197 C-127.20755859 196.54947266 -127.20755859 196.54947266 -125.37890625 196.08984375 C-122.18844633 195.18776757 -119.11015826 194.14824914 -116 193 C-115.35256836 192.76442383 -114.70513672 192.52884766 -114.03808594 192.28613281 C-95.00849169 185.2613127 -76.89597091 174.83383026 -67.52734375 156.046875 C-60.79791319 140.74379676 -59.86719631 125.40859469 -65.51171875 109.6640625 C-67.52197844 104.71491921 -69.97009095 100.384994 -73 96 C-74.10528831 94.35491972 -75.20948534 92.70910562 -76.3125 91.0625 C-76.80363281 90.35222656 -77.29476563 89.64195312 -77.80078125 88.91015625 C-82.43980311 81.52096509 -79.99149132 71.76642328 -78.3125 63.75 C-77.74209171 61.28855892 -77.15074284 58.83356902 -76.54589844 56.38037109 C-76.0274498 54.1196939 -75.64658145 51.87274322 -75.2890625 49.58203125 C-74.52099973 45.52247739 -73.49576291 42.37929941 -71 39 C-67.31285836 37.54536817 -64.09824009 36.87967855 -60.19995117 36.34863281 C-40.41850567 33.64721008 -16.38417011 22.17423402 -3 7 C-1.57483561 4.62618324 -0.79544899 2.6704359 0 0 Z " fill="#FEFEFE" transform="translate(511,134)"/>
<path d="M0 0 C168.96 0 337.92 0 512 0 C512 42.57 512 85.14 512 129 C509.69 127.02 507.38 125.04 505 123 C496.6233713 119.26273489 488.83426846 118.81834573 479.75 118.8125 C478.76386719 118.80025391 477.77773438 118.78800781 476.76171875 118.77539062 C461.36433382 118.74496101 447.38245943 123.33769259 433.99609375 130.70703125 C431 132 431 132 428.70703125 131.828125 C426.38912029 130.70364646 425.37767927 129.13540287 424 127 C425.546875 125.824375 425.546875 125.824375 427.125 124.625 C435.47033443 117.42609535 440.42159948 105.79325308 442 95 C442.18925955 91.64501188 442.23062132 88.29727779 442.25 84.9375 C442.270625 84.03966797 442.29125 83.14183594 442.3125 82.21679688 C442.37175275 77.12924714 442.37175275 77.12924714 440.6640625 72.42578125 C438.97734765 70.76998929 438.97734765 70.76998929 436.125 70.25 C432.69801915 70.73884053 432.69801915 70.73884053 430.5 74.0625 C428.62701809 77.41477973 427.23599547 80.88630083 425.87231445 84.47241211 C421.15740936 96.87040984 415.62891798 103.4686899 404 110 C402.96875 110.639375 401.9375 111.27875 400.875 111.9375 C394.43377233 114.3179537 388.10613168 112.95755819 381.57421875 111.51171875 C377.416925 110.68530679 373.22082287 110.34125802 369 110 C369.66666667 106 370.33333333 102 371 98 C365.17829232 97.58416374 361.84736048 98.16184698 356.859375 101.22265625 C355 102 355 102 352.90625 101.90625 C350.22663539 100.63233486 349.82246623 99.15696794 348.75 96.4375 C348.41484375 95.61121094 348.0796875 94.78492187 347.734375 93.93359375 C347.49203125 93.29550781 347.2496875 92.65742187 347 92 C345.35 92 343.7 92 342 92 C340.68 94.97 339.36 97.94 338 101 C333.39781027 100.45212027 330.10334745 99.09532636 326 97 C323.26427415 96.30092586 323.26427415 96.30092586 321 96 C322.67731272 101.96447998 322.67731272 101.96447998 325.75 107.25 C327 109 327 109 326.6875 111.75 C326.3471875 112.86375 326.3471875 112.86375 326 114 C321.40571841 115.36850941 316.82186377 116.49483818 312.1328125 117.48828125 C309.79128243 118.00464626 309.79128243 118.00464626 306.8125 119.1875 C300.03163332 121.14641704 294.39520505 117.43634907 288.5625 114.3125 C287.33176758 113.67924805 287.33176758 113.67924805 286.07617188 113.03320312 C272.96214195 106.09417532 267.08778519 96.91754542 262.17944336 83.17797852 C260.73441962 79.27205111 259.26615828 76.6219456 256 74 C253.45632332 73.24978756 253.45632332 73.24978756 251 74 C247.41306231 78.35740163 247.60385667 82.38808986 247.75 87.75 C247.76095703 88.54970215 247.77191406 89.3494043 247.78320312 90.17333984 C247.88301924 95.49939758 248.2187339 100.72645379 249 106 C243.71826474 104.88805573 238.51865455 103.61313212 233.3125 102.1875 C226.8220621 100.43179985 220.29853527 98.8366659 213.75 97.3125 C212.4028894 96.99091919 212.4028894 96.99091919 211.02856445 96.6628418 C179.5376059 89.44178325 146.976323 93.46915731 119.1875 109.875 C113.06092323 113.79995687 107.45722896 118.19516997 102 123 C101.37738281 123.52722656 100.75476563 124.05445312 100.11328125 124.59765625 C92.53736913 131.50250855 86.59942847 141.26117396 82.3125 150.5 C79.34922068 156.76847548 74.58679732 160.63862207 69.4140625 165.0859375 C50.29189662 181.82471627 35.49387541 198.42266854 26 222 C23.87784977 227.01941206 21.83490258 230.14801551 17.5534668 233.60522461 C15.02938587 235.87146291 13.22869706 238.58830682 11.4375 241.4375 C11.05400391 242.04078125 10.67050781 242.6440625 10.27539062 243.265625 C5.4222041 251.19824459 2.33279477 259.78150285 1 269 C0.67 269 0.34 269 0 269 C0 180.23 0 91.46 0 0 Z " fill="#FEFEFE" transform="translate(0,0)"/>
<path d="M0 0 C2.62187494 1.04874998 3.79371361 1.64931313 5.25 4.125 C5.62125 5.053125 5.62125 5.053125 6 6 C9.06497756 4.91824321 11.41708767 3.71638038 14.125 1.875 C17 0 17 0 20 0 C19.855625 0.53625 19.71125 1.0725 19.5625 1.625 C18.90551352 4.3989429 18.45853559 7.18713463 18 10 C18.57443848 10.05534912 19.14887695 10.11069824 19.74072266 10.16772461 C22.36902619 10.4221876 24.99701018 10.67981811 27.625 10.9375 C28.98044922 11.06801758 28.98044922 11.06801758 30.36328125 11.20117188 C34.94356654 11.65251386 39.4698372 12.1647042 44 13 C44 13.66 44 14.32 44 15 C42.2421875 15.9765625 40.484375 16.953125 38.7265625 17.9296875 C36.8387386 19.00897274 36.8387386 19.00897274 35 21 C35.32110689 24.53217579 35.87816502 27.63449506 37 31 C39.37625345 32.18391223 39.37625345 32.18391223 42 33 C42.99 33.33 43.98 33.66 45 34 C53.86909887 35.0628979 63.31784723 32.88053578 71.25 28.859375 C73 28 73 28 75.625 28.125 C78 29 78 29 79.1484375 31.0546875 C79.42945313 31.69664062 79.71046875 32.33859375 80 33 C79.0615625 33.68707031 78.123125 34.37414062 77.15625 35.08203125 C75.93712544 35.99168573 74.71839571 36.90186953 73.5 37.8125 C72.87996094 38.26431641 72.25992188 38.71613281 71.62109375 39.18164062 C70.02466038 40.38335146 68.50582921 41.68653633 67 43 C67 43.99 67 44.98 67 46 C70.15718047 44.60192982 72.80551419 42.7342611 75.56616211 40.67456055 C87.79017284 31.57790052 100.33465195 25.18083955 115 21 C116.21429688 20.63519531 117.42859375 20.27039063 118.6796875 19.89453125 C131.87375644 16.68615046 149.14762642 16.92715501 161 24 C163 26 163 26 163.375 28.75 C162.58778519 35.57252835 157.72490963 39.6549473 152.71875 43.9296875 C135.55292904 57.00136151 108.7397547 68.64588063 87 68 C87 69.32 87 70.64 87 72 C87.99 72 88.98 72 90 72 C89.47381114 78.51564718 88.22476452 84.15756479 86.0625 90.3125 C85.79759766 91.09689453 85.53269531 91.88128906 85.25976562 92.68945312 C84.03546014 96.26515427 82.74392297 99.64016992 81 103 C80.01 103 79.02 103 78 103 C77.34 101.68 76.68 100.36 76 99 C76.33 103.62 76.66 108.24 77 113 C72.72286855 112.62807553 69.27283396 111.80126413 65.3125 110.125 C50.16616811 103.81973967 34.05804402 102.65359607 17.84985352 102.73925781 C15.4367572 102.75000331 13.02440243 102.7392822 10.61132812 102.7265625 C-1.80340951 102.71409097 -13.54626431 104.07031052 -25.5625 107.3125 C-26.37187012 107.5290625 -27.18124023 107.745625 -28.01513672 107.96875 C-37.76912774 110.65950614 -47.56670718 114.29100129 -56 120 C-56.33 120.66 -56.66 121.32 -57 122 C-56.10023438 121.49210937 -55.20046875 120.98421875 -54.2734375 120.4609375 C-43.02711353 114.35715066 -31.46027345 110.79574895 -19 108 C-18.27797897 107.83186798 -17.55595795 107.66373596 -16.8120575 107.49050903 C-10.69597883 106.14925024 -4.88055738 105.67960923 1.37109375 105.6640625 C2.81380394 105.6540773 2.81380394 105.6540773 4.28565979 105.64389038 C6.31175853 105.63382788 8.33788998 105.62907136 10.36401367 105.62939453 C13.39886054 105.62505525 16.43220955 105.58875983 19.46679688 105.55078125 C43.57811966 105.41100867 67.0742037 109.80050233 85.25 126.8125 C93.39602482 135.32057036 98.60277183 145.72812816 98.5 157.5625 C98.49427979 158.34117432 98.48855957 159.11984863 98.48266602 159.92211914 C97.92690324 178.3034582 87.70761191 192.83525653 74.765625 205.12109375 C67.65811134 211.23880265 59.46332704 215.12345654 51 219 C49.91074219 219.515625 48.82148438 220.03125 47.69921875 220.5625 C21.30001528 230.82111339 -14.93416575 230.70212668 -42 223 C-42.67240723 222.82339844 -43.34481445 222.64679688 -44.03759766 222.46484375 C-59.82473418 218.26427527 -75.37578966 210.23659246 -84.71484375 196.47265625 C-90.31846207 185.65348181 -89.93148064 169.79227928 -86.375 158.3125 C-85.63994864 156.51742721 -84.84851184 154.74430917 -84 153 C-83.55269531 152.0615625 -83.10539062 151.123125 -82.64453125 150.15625 C-79.80811765 144.62030068 -76.58920294 139.98854858 -72.3203125 135.4609375 C-69.08411882 129.42897887 -71.17257596 121.852125 -72.6875 115.5 C-72.94998535 114.33670166 -72.94998535 114.33670166 -73.21777344 113.14990234 C-74.11456189 109.29120786 -75.11883684 105.51424584 -76.37890625 101.7578125 C-80.09004174 90.64142958 -80.54386192 80.68698846 -80 69 C-78.02 69 -76.04 69 -74 69 C-74.33 68.01 -74.66 67.02 -75 66 C-76.01030273 65.88724731 -76.01030273 65.88724731 -77.04101562 65.7722168 C-132.37881489 59.53398329 -132.37881489 59.53398329 -148 42 C-152.05897148 36.61263785 -154.58806603 31.64869501 -155.28515625 24.91015625 C-154.90515336 22.36465741 -154.00706946 21.56001919 -152 20 C-135.73140935 14.57713645 -113.74965124 20.75817276 -98.94140625 27.90625 C-88.44316339 33.20701423 -78.55301537 39.52483931 -68.70141602 45.92773438 C-66.98451035 47.04880154 -66.98451035 47.04880154 -65 48 C-65.34786708 46.02463255 -65.34786708 46.02463255 -66 44 C-66.66 43.67 -67.32 43.34 -68 43 C-65.63636364 37.72727273 -65.63636364 37.72727273 -63 36 C-61.42252611 36.17146455 -59.84493081 36.36482715 -58.28515625 36.65625 C-50.69027065 37.79872852 -43.34860697 37.96755665 -36.48828125 34.265625 C-33.92470245 32.08557374 -33.07965106 29.79651057 -32.75 26.5 C-33.01369484 23.8630516 -33.76594238 22.31140952 -35 20 C-28.01250886 17.72987039 -21.03931473 16.15135078 -13.80859375 14.84375 C-12.88175781 14.5653125 -11.95492187 14.286875 -11 14 C-10.67 13.01 -10.34 12.02 -10 11 C-10.97769614 8.9528359 -10.97769614 8.9528359 -12.4375 6.9375 C-15 3.1880109 -15 3.1880109 -15 1 C-10.25981099 2.83491188 -5.63586749 4.91941459 -1 7 C-0.67 4.69 -0.34 2.38 0 0 Z " fill="#F2F2F3" transform="translate(344,103)"/>
<path d="M0 0 C3 3.42964301 3 3.42964301 3 6 C0.69043226 6.53859485 -1.6208995 7.05581278 -3.9375 7.5625 C-4.57751953 7.71396484 -5.21753906 7.86542969 -5.87695312 8.02148438 C-13.20392543 9.58894611 -19.92401039 8.25730164 -27.17675781 6.84399414 C-34.70015102 5.41207259 -42.09013462 4.6594066 -49.75 4.5625 C-50.58313721 4.54050537 -51.41627441 4.51851074 -52.2746582 4.49584961 C-57.64250173 4.51389002 -60.77481924 5.39153817 -65 9 C-66.05226728 10.97300116 -67.04788888 12.97676387 -68 15 C-69.46690576 16.83263836 -71.00622466 18.56399925 -72.59765625 20.2890625 C-75.94244821 24.36989503 -76.43357083 27.75707921 -76.3125 32.91015625 C-74.65217042 49.32666494 -68.61353459 67.43141482 -56.125 78.5625 C-51.89901221 80.50645439 -48.57301605 80.74773928 -44 80 C-37.91633779 77.62840287 -32.5923086 73.89153757 -27.18676758 70.26196289 C-18.92749582 64.78974158 -11.6166136 62.82304628 -1.6875 62.9375 C0.849375 62.958125 3.38625 62.97875 6 63 C6.99 71.415 6.99 71.415 8 80 C6.14375 79.2575 6.14375 79.2575 4.25 78.5 C-7.50327816 74.71039162 -17.35998142 77.66306597 -28 83 C-40.74677771 89.80992234 -56.1961985 99.58859551 -61 114 C-62.45654935 123.50067414 -59.28673468 130.22066038 -54 138 C-49.46571881 143.78258532 -44.28923065 148.35371069 -37 150 C-28.24416389 150.78048949 -20.14740023 150.59894559 -12 147 C-11.16984375 146.68675781 -10.3396875 146.37351562 -9.484375 146.05078125 C-4.35339257 144.10746006 0.31484035 141.85183631 5 139 C4.69255859 139.88751953 4.69255859 139.88751953 4.37890625 140.79296875 C3.97478516 141.97826172 3.97478516 141.97826172 3.5625 143.1875 C3.29566406 143.96480469 3.02882812 144.74210938 2.75390625 145.54296875 C1.99573147 148.01391143 1.48944856 150.46410236 1 153 C-1.70993913 153.62699406 -4.4199704 154.2535849 -7.13012695 154.87963867 C-9.475257 155.42172986 -11.82014367 155.96487488 -14.16479492 156.5090332 C-19.91941478 157.84157945 -25.67605569 159.15625109 -31.44921875 160.40625 C-32.44034668 160.62321533 -33.43147461 160.84018066 -34.45263672 161.0637207 C-36.31854957 161.47070443 -38.18602272 161.87061786 -40.05517578 162.26245117 C-44.49860777 163.23824207 -48.36318654 164.10883882 -52 167 C-55.05724371 171.94450638 -54.42550585 177.35900261 -54.4375 183 C-54.44136719 184.30146973 -54.44523437 185.60293945 -54.44921875 186.94384766 C-54.33013092 204.68793359 -52.4470278 222.38328249 -50.77905273 240.03515625 C-49.66562655 252.03742083 -48.7540817 263.98019896 -48.65625 276.0390625 C-48.64057983 277.0754184 -48.62490967 278.11177429 -48.60876465 279.17953491 C-48.64050788 288.06661169 -48.64050788 288.06661169 -52 292 C-60.46905296 296.23452648 -79.33428363 295.50291293 -88.375 292.625 C-92 291 -92 291 -94 289 C-94.8001722 281.54345031 -92.51928868 275.06437603 -90.3125 268 C-89.94600342 266.79029541 -89.57950684 265.58059082 -89.2019043 264.33422852 C-87.70104128 259.40045962 -86.1794914 254.47654795 -84.53125 249.58984375 C-76.77568587 226.34800892 -68.67805314 192.67956495 -74.95703125 168.28125 C-79.0417737 161.72066939 -87.01153258 160.59068497 -94.10668945 158.61743164 C-109.92507978 154.21668631 -123.67906108 148.0343276 -136 137 C-137.20076172 135.95972656 -137.20076172 135.95972656 -138.42578125 134.8984375 C-141.69215254 132.04370384 -144.89633577 129.15701799 -147.9375 126.0625 C-149.82870996 123.95388345 -149.82870996 123.95388345 -152 123 C-151.45533081 123.6340979 -151.45533081 123.6340979 -150.8996582 124.28100586 C-145.07421633 132.52086716 -146.69072845 141.99148582 -147.1875 151.5625 C-147.26089934 153.3521153 -147.33188509 155.14183131 -147.40039062 156.93164062 C-147.57240793 161.28942104 -147.77718878 165.64453334 -148 170 C-148.75925781 169.51660156 -149.51851562 169.03320312 -150.30078125 168.53515625 C-153.96776736 166.44959107 -155.80798721 166.38150631 -160 167 C-161.77997402 167.95084735 -163.52518747 168.96851295 -165.23828125 170.03515625 C-166.13200439 170.58695557 -167.02572754 171.13875488 -167.9465332 171.70727539 C-168.96299927 172.34717407 -168.96299927 172.34717407 -170 173 C-170.09325834 159.65517513 -170.16404569 146.31042958 -170.20724869 132.96534348 C-170.22799863 126.76665368 -170.25608259 120.56818913 -170.30175781 114.36962891 C-170.34566915 108.37194906 -170.3692314 102.37448394 -170.37950897 96.37665558 C-170.38681994 94.10446041 -170.40109258 91.83227512 -170.42292023 89.56017303 C-170.58172938 72.32155366 -169.40544712 56.15011418 -163 40 C-162.67 40 -162.34 40 -162 40 C-161.96132812 41.41539062 -161.96132812 41.41539062 -161.921875 42.859375 C-161.19423227 59.33056041 -156.27745927 71.72406624 -144.0859375 83.23828125 C-137.75740623 88.5831644 -132.39311099 90.86327763 -124.00390625 90.48828125 C-117.8728272 89.49168192 -112.94063878 86.94063878 -108.5625 82.5625 C-103.19954384 73.7672519 -102.75033067 66.54940607 -102.625 56.4375 C-102.58761719 55.32052734 -102.55023438 54.20355469 -102.51171875 53.05273438 C-102.40415963 42.74498497 -105.07323154 33.07994729 -112.34375 25.45703125 C-120.18751319 18.55673957 -128.9399212 15.4835155 -139.3359375 15.76171875 C-143.06633665 16.09537615 -146.41736899 16.91845102 -150 18 C-133.81416335 -2.5603871 -109.14828056 -11.38766974 -83.88671875 -14.55078125 C-56.57052323 -17.38515403 -23.99934408 -14.84552264 0 0 Z " fill="#FBFBFB" transform="translate(252,114)"/>
<path d="M0 0 C0.96180679 -0.0066568 1.92361359 -0.0133136 2.91456604 -0.02017212 C4.94066478 -0.03023462 6.96679623 -0.03499114 8.99291992 -0.03466797 C12.02776679 -0.03900725 15.0611158 -0.07530267 18.09570312 -0.11328125 C42.20702591 -0.25305383 65.70310995 4.13643983 83.87890625 21.1484375 C92.02493107 29.65650786 97.23167808 40.06406566 97.12890625 51.8984375 C97.12318604 52.67711182 97.11746582 53.45578613 97.11157227 54.25805664 C96.55580949 72.6393957 86.33651816 87.17119403 73.39453125 99.45703125 C66.28701759 105.57474015 58.09223329 109.45939404 49.62890625 113.3359375 C48.53964844 113.8515625 47.45039063 114.3671875 46.328125 114.8984375 C19.92892153 125.15705089 -16.3052595 125.03806418 -43.37109375 117.3359375 C-44.04350098 117.15933594 -44.7159082 116.98273438 -45.40869141 116.80078125 C-61.19582793 112.60021277 -76.74688341 104.57252996 -86.0859375 90.80859375 C-91.68955582 79.98941931 -91.30257439 64.12821678 -87.74609375 52.6484375 C-87.01104239 50.85336471 -86.21960559 49.08024667 -85.37109375 47.3359375 C-84.70013672 45.92828125 -84.70013672 45.92828125 -84.015625 44.4921875 C-81.17206577 38.94229173 -77.82625994 34.03776275 -73.88671875 29.2109375 C-72.21622251 27.20293996 -72.21622251 27.20293996 -70.37109375 24.3359375 C-69.71109375 24.3359375 -69.05109375 24.3359375 -68.37109375 24.3359375 C-66.96769979 23.2035853 -65.5989131 22.02825286 -64.24609375 20.8359375 C-51.36325599 10.44892016 -36.31854742 5.91411554 -20.37109375 2.3359375 C-19.28806221 2.08373947 -19.28806221 2.08373947 -18.18315125 1.82644653 C-12.06707258 0.48518774 -6.25165113 0.01554673 0 0 Z " fill="#EAACAA" transform="translate(345.37109375,208.6640625)"/>
<path d="M0 0 C-0.00902344 1.28132813 -0.01804688 2.56265625 -0.02734375 3.8828125 C0.11204899 17.4499339 1.91810263 28.01719863 11.6875 38.1875 C13.40025225 39.73674369 15.02368442 41.01449925 16.99560547 42.22167969 C19.63530365 44.56364821 19.95755698 46.36605026 20.74609375 49.78515625 C21.02348389 50.94668213 21.30087402 52.10820801 21.58666992 53.30493164 C21.86744385 54.5449292 22.14821777 55.78492676 22.4375 57.0625 C23.04492437 59.62546309 23.65429869 62.18796482 24.265625 64.75 C24.56017578 65.9978125 24.85472656 67.245625 25.15820312 68.53125 C26.22101516 72.91072604 27.43027201 77.23574738 28.6875 81.5625 C37.69079817 113.29453252 37.69079817 113.29453252 34.2265625 123.21484375 C31.88581174 126.6216052 27.82811672 127.00315605 24 128 C23.25621094 128.20753906 22.51242187 128.41507813 21.74609375 128.62890625 C16.41108553 129.91977964 11.15329184 130.23121737 5.6875 130.3125 C5.00550537 130.33014404 4.32351074 130.34778809 3.62084961 130.3659668 C-1.95745459 130.35841649 -5.10706722 128.89293278 -9 125 C-10.57041388 114.90448218 -8.2228286 101.6684858 -5 92 C-4.89232301 89.78185398 -4.84577861 87.5605592 -4.83203125 85.33984375 C-4.82775116 84.6828952 -4.82347107 84.02594666 -4.81906128 83.34909058 C-4.8090313 81.21182505 -4.80901826 79.07478474 -4.8125 76.9375 C-4.81343658 76.20671234 -4.81437317 75.47592468 -4.81533813 74.72299194 C-4.86453777 57.07437858 -7.12165346 40.55574033 -10.23510742 23.18481445 C-11.37930831 16.79560016 -12.38091823 10.46210077 -13 4 C-8.93662608 1.29108405 -4.89951609 0 0 0 Z " fill="#F7F7F7" transform="translate(252,273)"/>
<path d="M0 0 C25.94448653 13.09683028 25.94448653 13.09683028 33.94140625 21.09375 C33.338125 21.62484375 32.73484375 22.1559375 32.11328125 22.703125 C29.62438626 25.44270006 28.53603913 27.90746598 27.19140625 31.34375 C26.7634375 32.42140625 26.33546875 33.4990625 25.89453125 34.609375 C25.58 35.42921875 25.26546875 36.2490625 24.94140625 37.09375 C0.8088806 38.44277317 -27.32138686 32.74570394 -46.2265625 16.94921875 C-51.31889691 11.7917372 -55.63884087 5.2912788 -56.37109375 -2.03125 C-56.05859375 -4.90625 -56.05859375 -4.90625 -54.74609375 -6.71875 C-41.47633186 -16.05673059 -12.89773485 -6.22585627 0 0 Z " fill="#F6F6F6" transform="translate(245.05859375,130.90625)"/>
<path d="M0 0 C0.763125 0.309375 1.52625 0.61875 2.3125 0.9375 C6.21147165 2.47895391 9.19503743 3.15887012 13.375 3.1875 C14.31085938 3.20167969 15.24671875 3.21585937 16.2109375 3.23046875 C19.17117052 2.98585566 21.28288326 2.15148019 24 1 C24.0501123 1.85529297 24.10022461 2.71058594 24.15185547 3.59179688 C24.38753912 7.5615432 24.62881993 11.53089212 24.875 15.5 C24.91913025 16.21184448 24.9632605 16.92368896 25.00872803 17.65710449 C25.50436944 25.54846704 26.01903644 33.41575628 27.125 41.25 C27.96534987 47.21123187 28.22935109 52.98590474 28 59 C19.55894129 63.03702808 11.47783748 64.18266917 2.1875 64.3125 C1.45805176 64.33014404 0.72860352 64.34778809 -0.02294922 64.3659668 C-4.58500134 64.36019205 -7.40663926 63.82794506 -11 61 C-13.12040087 52.86943972 -9.96370097 43.68688811 -7.7512207 35.86990356 C-6.7935875 32.48101633 -5.88582224 29.07894899 -4.98046875 25.67578125 C-4.80329315 25.01200974 -4.62611755 24.34823822 -4.443573 23.66435242 C-2.39108173 15.86230164 -1.05227678 7.99072676 0 0 Z " fill="#FAFAFA" transform="translate(80,302)"/>
<path d="M0 0 C4.49708843 0.32905525 7.90007002 1.42229428 11.48217773 4.09643555 C14.83815209 8.3053035 14.14826846 14.1635712 14.25 19.3125 C14.33355442 21.32495371 14.41724713 23.33741033 14.50808716 25.34954834 C14.5709006 26.74998261 14.62998647 28.15058859 14.68551636 29.55133057 C15.06346515 38.64779121 16.07239237 47.68593557 17.03613281 56.7355957 C17.70120577 63.34636936 18.16711339 69.92826769 18.2734375 76.5703125 C18.29583496 77.84922363 18.31823242 79.12813477 18.34130859 80.44580078 C17.96759301 84.33746849 17.07035682 86.70231678 15 90 C11.11743359 92.58837761 7.86776783 92.25793118 3.375 92.1875 C2.19164063 92.1865332 2.19164063 92.1865332 0.984375 92.18554688 C-4.8596388 92.1403612 -4.8596388 92.1403612 -6 91 C-6.07440922 89.47550636 -6.07812452 87.94749601 -6.0534668 86.42138672 C-6.03973526 85.43939301 -6.02600372 84.45739929 -6.01185608 83.44564819 C-5.99118576 82.36788116 -5.97051544 81.29011414 -5.94921875 80.1796875 C-5.93116684 79.06510162 -5.91311493 77.95051575 -5.89451599 76.80215454 C-5.83243266 73.1596061 -5.76110592 69.51733295 -5.6875 65.875 C-5.66355164 64.64692627 -5.63960327 63.41885254 -5.6149292 62.15356445 C-5.32386414 47.59314841 -4.99362933 33.03887626 -4.125 18.5 C-4.02578247 16.6744458 -4.02578247 16.6744458 -3.92456055 14.81201172 C-3.53781743 9.171905 -3.09140105 4.79758414 0 0 Z " fill="#F7F7F7" transform="translate(123,264)"/>
<path d="M0 0 C4.9621555 2.10545642 8.68544868 4.65200704 10.75 9.75 C11.69194471 16.80363248 11.01419108 22.93644045 6.75 28.75 C0.61987361 34.44226022 -5.03331597 34.24026759 -13.015625 34.1015625 C-19.20220925 33.77951371 -22.81760157 31.40560676 -26.91015625 26.9375 C-29.56878394 22.59688336 -29.00313362 17.63281628 -28.25 12.75 C-23.18785128 1.20676694 -11.65486612 -3.91411076 0 0 Z " fill="#060909" transform="translate(157.25,215.25)"/>
<path d="M0 0 C2.6875 1.5625 2.6875 1.5625 4 4 C4.08647102 8.66943524 3.04852658 12.07458524 -0.1875 15.53125 C-8.58046499 22.33244576 -19.76144063 25.17078391 -30 28 C-30.89589844 28.24878906 -31.79179687 28.49757812 -32.71484375 28.75390625 C-40.05312298 30.49995272 -47.50649924 30.17984402 -55 30 C-55.70703125 27.73046875 -55.70703125 27.73046875 -56 25 C-48.38537733 13.39790931 -28.63951733 6.23670972 -16 2 C-14.99710937 1.63648438 -13.99421875 1.27296875 -12.9609375 0.8984375 C-8.58330313 -0.42986844 -4.52779319 -0.61144558 0 0 Z " fill="#E4A8A6" transform="translate(479,131)"/>
<path d="M0 0 C3.33355867 0.62454658 6.51996046 1.53487623 9.75 2.5625 C10.61544434 2.83280029 11.48088867 3.10310059 12.37255859 3.3815918 C23.96788196 7.13390461 36.34999524 12.02326568 44 22 C44.3203125 24.7109375 44.3203125 24.7109375 44 27 C42.19825103 28.80174897 39.62669648 28.25854804 37.1875 28.3125 C19.66546886 28.13370376 2.49950786 24.05979174 -10.59765625 11.765625 C-12.86598625 8.90967748 -13.20629989 6.57586474 -13 3 C-9.7142513 -1.50775923 -5.05715593 -0.48598653 0 0 Z " fill="#E5A9A7" transform="translate(226,133)"/>
<path d="M0 0 C4.29893293 0.9336745 6.81001648 3.1447183 9.5 6.54296875 C13.11278936 12.39172225 14.67490022 17.57875356 14.8125 24.48046875 C14.84988281 25.70636719 14.88726562 26.93226563 14.92578125 28.1953125 C14.5 31.54296875 14.5 31.54296875 12.671875 33.90625 C6.92621699 38.23616135 -0.57702806 38.36582595 -7.5 37.54296875 C-10.125 36.23046875 -10.125 36.23046875 -11.5 33.54296875 C-12.27016804 29.88129263 -12.38905732 26.27661648 -12.5 22.54296875 C-12.53641602 21.85283691 -12.57283203 21.16270508 -12.61035156 20.45166016 C-12.72802732 18.19060449 -12.8060038 15.93099549 -12.875 13.66796875 C-12.91334961 12.94262939 -12.95169922 12.21729004 -12.99121094 11.4699707 C-13.05103754 7.55903331 -12.64748535 5.74004864 -10.28125 2.578125 C-6.57737095 -0.13215728 -4.46022904 -0.24557809 0 0 Z " fill="#070A0A" transform="translate(263.5,347.45703125)"/>
<path d="M0 0 C1.2915851 2.58317021 0.8350736 3.40152132 0 6.125 C-3.90392054 16.77356154 -14.57630975 24.62661547 -22.60253906 32.35571289 C-39.24863091 48.41750753 -45.45409372 65.5067763 -49 88 C-49.33 88 -49.66 88 -50 88 C-51.12944481 68.20334242 -45.61189834 49.69671377 -32.79296875 34.359375 C-31.34642706 32.75265408 -29.88590745 31.15830813 -28.40625 29.58203125 C-26.49479445 27.53094015 -24.66399879 25.45111045 -22.83984375 23.32421875 C-18.47851441 18.31813545 -13.77850064 13.66937858 -9.0625 9 C-8.18787109 8.12988281 -7.31324219 7.25976562 -6.41210938 6.36328125 C-4.27702551 4.23986451 -2.13962795 2.11883622 0 0 Z " fill="#F3F3F3" transform="translate(76,165)"/>
<path d="M0 0 C2.6875 1.5625 2.6875 1.5625 4 4 C4.08647102 8.66943524 3.04852658 12.07458524 -0.1875 15.53125 C-8.58046499 22.33244576 -19.76144063 25.17078391 -30 28 C-30.89589844 28.24878906 -31.79179687 28.49757812 -32.71484375 28.75390625 C-40.05312298 30.49995272 -47.50649924 30.17984402 -55 30 C-55.70703125 27.73046875 -55.70703125 27.73046875 -56 25 C-48.38537733 13.39790931 -28.63951733 6.23670972 -16 2 C-14.99710937 1.63648438 -13.99421875 1.27296875 -12.9609375 0.8984375 C-8.58330313 -0.42986844 -4.52779319 -0.61144558 0 0 Z M-48.78515625 22.7734375 C-50.31516224 24.54141005 -50.31516224 24.54141005 -52 27 C-44.91008069 27.25555837 -38.59659818 26.36817584 -31.6875 24.8125 C-30.16564087 24.4719458 -30.16564087 24.4719458 -28.61303711 24.12451172 C-18.02113983 21.66499549 -7.11837475 18.89309283 0 10 C1.11929699 6.7490834 1.11929699 6.7490834 1 4 C-11.42427374 -2.21213687 -40.03834084 14.08404101 -48.78515625 22.7734375 Z " fill="#1A1919" transform="translate(479,131)"/>
<path d="M0 0 C3.33355867 0.62454658 6.51996046 1.53487623 9.75 2.5625 C10.61544434 2.83280029 11.48088867 3.10310059 12.37255859 3.3815918 C23.96788196 7.13390461 36.34999524 12.02326568 44 22 C44.3203125 24.7109375 44.3203125 24.7109375 44 27 C42.19825103 28.80174897 39.62669648 28.25854804 37.1875 28.3125 C19.66546886 28.13370376 2.49950786 24.05979174 -10.59765625 11.765625 C-12.86598625 8.90967748 -13.20629989 6.57586474 -13 3 C-9.7142513 -1.50775923 -5.05715593 -0.48598653 0 0 Z M-9 3 C-9.74028527 4.82749091 -9.74028527 4.82749091 -10 7 C-5.29250457 15.37973252 6.42960937 19.71659403 15.23046875 22.328125 C23.85702324 24.64275645 32.03813659 25.56109058 41 25 C37.34725385 16.57336778 27.03188567 12.31825785 19 9 C15.60893347 7.78710615 12.19141889 6.68584105 8.75 5.625 C7.91049805 5.36203125 7.07099609 5.0990625 6.20605469 4.828125 C0.95569563 3.28475592 -3.53031543 2.73533784 -9 3 Z " fill="#1A1717" transform="translate(226,133)"/>
<path d="M0 0 C6.75 1.625 6.75 1.625 9 5 C9.66 4.67 10.32 4.34 11 4 C13.125 4.4375 13.125 4.4375 15 5 C15 5.66 15 6.32 15 7 C16.65 7.66 18.3 8.32 20 9 C18.96008872 12.01574271 18.03085171 12.97991051 15.3125 14.75 C9.32828701 17.00819358 4.86113067 16.11998343 -1 14 C-2.99788438 13.65421232 -4.99759451 13.31856451 -7 13 C-7.66 12.67 -8.32 12.34 -9 12 C-9 11.34 -9 10.68 -9 10 C-8.39671875 9.75507813 -7.7934375 9.51015625 -7.171875 9.2578125 C-4.61035221 7.77434067 -3.72499008 6.41526069 -2.25 3.875 C-1.82203125 3.15054688 -1.3940625 2.42609375 -0.953125 1.6796875 C-0.63859375 1.12539062 -0.3240625 0.57109375 0 0 Z " fill="#1D1C18" transform="translate(287,120)"/>
<path d="M0 0 C0.99 0.33 1.98 0.66 3 1 C3.17352925 17.25872685 2.66079722 33.4765672 2.07287598 49.72344971 C1.94964875 53.15017809 1.83049132 56.57704809 1.7109375 60.00390625 C1.47760357 66.66940355 1.24038404 73.33475342 1 80 C0.34 80 -0.32 80 -1 80 C-1.82514354 74.43028113 -2.07881768 68.96501965 -2.05859375 63.33984375 C-2.05705795 62.57144669 -2.05552216 61.80304962 -2.05393982 61.0113678 C-2.01399531 50.49980735 -1.82476314 39.98980862 -1.62768555 29.48022461 C-1.56152793 25.88466979 -1.50244841 22.28903649 -1.44335938 18.69335938 C-1.40147405 16.4088462 -1.3591725 14.12434061 -1.31640625 11.83984375 C-1.29969376 10.76403549 -1.28298126 9.68822723 -1.26576233 8.57981873 C-1.24581711 7.5969136 -1.22587189 6.61400848 -1.20532227 5.60131836 C-1.18977798 4.73405624 -1.1742337 3.86679413 -1.15821838 2.97325134 C-1 1 -1 1 0 0 Z " fill="#EFEFEF" transform="translate(112,259)"/>
<path d="M0 0 C1.8125 1 1.8125 1 3 3 C3.63656766 7.93339933 3.81294848 9.87621828 0.875 13.9375 C-2.22568093 16.16190154 -4.2305679 16.73701637 -8 17 C-10.1773029 14.64125519 -10.9633342 13.28721541 -11.375 10.0625 C-10.95090948 6.59909411 -10.08283899 4.77711865 -8 2 C-4.76746204 -0.15502531 -3.74849077 -0.46856135 0 0 Z " fill="#0F0E0E" transform="translate(409,239)"/>
<path d="M0 0 C3.1801134 1.19254252 4.03520321 1.85371728 5.5 4.9375 C6.09523355 9.29982809 5.9085588 12.88384835 4.3125 17 C2.5 18.9375 2.5 18.9375 0 19.5 C-2.5 18.9375 -2.5 18.9375 -4.1328125 17.28125 C-5.8635895 14.31420371 -5.90041375 12.29314987 -5.875 8.875 C-5.88273437 7.83214844 -5.89046875 6.78929687 -5.8984375 5.71484375 C-5.5 2.9375 -5.5 2.9375 -4.1328125 1.0625 C-2.5 -0.0625 -2.5 -0.0625 0 0 Z " fill="#0E1010" transform="translate(325.5,163.0625)"/>
<path d="M0 0 C2 2 2 2 2.1171875 4.0234375 C1.73065298 7.77656295 1.4157256 10.36871298 -0.6875 13.5625 C-3.67595848 15.4201904 -5.54143626 15.45111701 -9 15 C-11.39286884 12.60713116 -11.32050616 11.90552906 -11.375 8.625 C-11.28829512 5.4577218 -11.12197007 4.20003091 -9.4375 1.4375 C-6.12048598 -0.51868776 -3.78337161 -0.42037462 0 0 Z " fill="#0A0B0B" transform="translate(335,243)"/>
<path d="M0 0 C2.89094238 0.30974383 4.04691751 1.04170446 6.25 3 C8.58909313 7.00987394 8.70015152 10.44901513 8 15 C6.9765625 17.27734375 6.9765625 17.27734375 6 19 C2.3226295 18.79570164 1.19915015 18.22067989 -1.3125 15.4375 C-3.46931482 11.04398833 -3.54720744 8.84669449 -3 4 C-1.5 1.5 -1.5 1.5 0 0 Z " fill="#101212" transform="translate(373,160)"/>
<path d="M0 0 C1.79093191 -0.08086147 3.58289628 -0.13912702 5.375 -0.1875 C6.87160156 -0.23970703 6.87160156 -0.23970703 8.3984375 -0.29296875 C9.25695312 -0.19628906 10.11546875 -0.09960938 11 0 C13 3 13 3 12.9375 6.3125 C11.47858085 12.05091532 9.19218407 14.65193279 4.28125 17.671875 C-1.50972991 20.74284919 -6.43564991 22.747525 -13 23 C-10.4502063 19.75480801 -7.97010837 18.49525996 -4.1875 17.125 C0.721602 15.26867783 4.59290814 13.05275067 8 9 C9.48472611 5.81117748 9.48472611 5.81117748 10 3 C6.37 3 2.74 3 -1 3 C-0.67 2.01 -0.34 1.02 0 0 Z " fill="#181717" transform="translate(470,132)"/>
<path d="M0 0 C0.99 1.0209375 0.99 1.0209375 2 2.0625 C2.996573 3.04515438 3.99699841 4.02390821 5 5 C5.56976563 5.56589844 6.13953125 6.13179687 6.7265625 6.71484375 C15.11210255 14.60001207 24.92501471 17.62264714 36 20 C35.01 20.495 35.01 20.495 34 21 C34 21.66 34 22.32 34 23 C21.87627654 21.92961721 11.35156148 17.07938784 2.390625 8.77734375 C0.13522672 5.89474201 0 3.60787342 0 0 Z " fill="#181818" transform="translate(213,136)"/>
<path d="M0 0 C2.31 0.66 4.62 1.32 7 2 C7.75 4.25 7.75 4.25 8 7 C5.34612981 10.71541827 2.40100331 12.05076399 -2 13 C-5.875 12.625 -5.875 12.625 -9 12 C-9 11.34 -9 10.68 -9 10 C-8.39671875 9.75507813 -7.7934375 9.51015625 -7.171875 9.2578125 C-4.61035221 7.77434067 -3.72499008 6.41526069 -2.25 3.875 C-1.82203125 3.15054688 -1.3940625 2.42609375 -0.953125 1.6796875 C-0.63859375 1.12539062 -0.3240625 0.57109375 0 0 Z " fill="#EFD6A5" transform="translate(287,120)"/>
<path d="M0 0 C2.475 0.99 2.475 0.99 5 2 C4.80095656 6.27943406 4.27797034 7.72202966 1.1875 10.8125 C-3.57130282 14.07834507 -3.57130282 14.07834507 -6 14 C-8.75 12.1875 -8.75 12.1875 -11 10 C-11 9.34 -11 8.68 -11 8 C-10.37351562 7.67386719 -9.74703125 7.34773438 -9.1015625 7.01171875 C-7.87566406 6.35623047 -7.87566406 6.35623047 -6.625 5.6875 C-5.81289063 5.25824219 -5.00078125 4.82898438 -4.1640625 4.38671875 C-1.73165957 3.03221276 -1.73165957 3.03221276 0 0 Z " fill="#EFD6A5" transform="translate(277,114)"/>
<path d="M0 0 C1.25227484 1.47704212 2.50166522 2.95827399 3.68359375 4.4921875 C5.11764091 6.26762944 5.11764091 6.26762944 8 8 C7.3125 10.4375 7.3125 10.4375 6 13 C3.75 14.0625 3.75 14.0625 1 14 C-2.84825095 12.14987935 -4.60912095 11.04234414 -6.125 7 C-6 4 -6 4 -4.1875 1.625 C-2 0 -2 0 0 0 Z " fill="#F3D9A8" transform="translate(423,103)"/>
<path d="M0 0 C1.34331654 1.99330842 2.67594012 3.99384866 4 6 C5.31558703 7.02323436 6.64377755 8.03126968 8 9 C8 9.66 8 10.32 8 11 C4.32908566 11.96142994 2.41497807 12.15459967 -1.1875 10.8125 C-3.93728727 9.04041487 -5.44351857 7.85354928 -7 5 C-7 3.68 -7 2.36 -7 1 C-3.375 -1.125 -3.375 -1.125 0 0 Z " fill="#EED5A4" transform="translate(403,118)"/>
<path d="M0 0 C1.32 0.66 2.64 1.32 4 2 C4.75 4.625 4.75 4.625 5 7 C1.11690718 10.64775386 -1.71201818 11.58525633 -7 12 C-7.66 10.02 -8.32 8.04 -9 6 C-6.03 4.02 -3.06 2.04 0 0 Z " fill="#F3D9A8" transform="translate(267,106)"/>
<path d="M0 0 C3.52069985 0.58678331 5.71299843 1.35649921 9 3 C8.34 6.3 7.68 9.6 7 13 C3 13 3 13 0.8125 11.3125 C-1.21645108 8.72383828 -1.83646935 7.2706129 -2 4 C-1.0625 1.6875 -1.0625 1.6875 0 0 Z " fill="#F1D8A7" transform="translate(428,92)"/>
<path d="M0 0 C1.8125 0.125 1.8125 0.125 4 1 C4.61875 1.78375 5.2375 2.5675 5.875 3.375 C8.29507551 6.36450505 10.5041956 7.4904481 14 9 C12.3125 11.0625 12.3125 11.0625 10 13 C5.62043731 13 3.13720975 10.88284139 0 8 C-2 5 -2 5 -1.6875 2.875 C-1 1 -1 1 0 0 Z " fill="#EED6A5" transform="translate(409,112)"/>
<path d="M0 0 C-0.99 0.33 -1.98 0.66 -3 1 C-2.67 1.66 -2.34 2.32 -2 3 C-2.99257813 3.27972656 -3.98515625 3.55945313 -5.0078125 3.84765625 C-13.6434482 6.36843231 -21.39918882 9.43828275 -29.3046875 13.7421875 C-30.19414062 14.15726563 -31.08359375 14.57234375 -32 15 C-32.66 14.67 -33.32 14.34 -34 14 C-29.79817683 10.24353136 -25.82487899 7.65798731 -20.6875 5.375 C-20.03031982 5.07722656 -19.37313965 4.77945313 -18.69604492 4.47265625 C-5.06360047 -1.61675935 -5.06360047 -1.61675935 0 0 Z " fill="#171515" transform="translate(319,211)"/>
<path d="M0 0 C2.125 0.375 2.125 0.375 4 1 C3.83701416 1.54366211 3.67402832 2.08732422 3.50610352 2.64746094 C2.91950781 5.37415471 2.88750752 7.85141293 2.90234375 10.640625 C2.90556641 11.71054687 2.90878906 12.78046875 2.91210938 13.8828125 C2.92048828 14.99398438 2.92886719 16.10515625 2.9375 17.25 C2.94201172 18.37664062 2.94652344 19.50328125 2.95117188 20.6640625 C2.96294603 23.44276217 2.9793916 26.22135409 3 29 C-2.00182088 23.99817912 -2.19534173 13.55419181 -2.3125 6.75 C-2.29271917 2.29271917 -2.29271917 2.29271917 0 0 Z " fill="#D8D8D8" transform="translate(30,262)"/>
<path d="M0 0 C2.23789447 1.98923953 2.38028058 3.58141547 2.6875 6.5 C1.5678014 7.50593243 0.4415588 8.5045849 -0.6875 9.5 C-1.31398438 10.056875 -1.94046875 10.61375 -2.5859375 11.1875 C-4.3125 12.5 -4.3125 12.5 -6.3125 12.5 C-6.9725 9.2 -7.6325 5.9 -8.3125 2.5 C-2.98829909 -0.64611872 -2.98829909 -0.64611872 0 0 Z " fill="#F0D7A6" transform="translate(261.3125,95.5)"/>
<path d="M0 0 C0.61875 1.3921875 0.61875 1.3921875 1.25 2.8125 C2.95985121 5.92687186 4.1611847 7.04219635 7 9 C7 9.66 7 10.32 7 11 C2.23936379 11.32831974 -0.17575152 11.41212424 -4.5 9.25 C-5.325 8.5075 -6.15 7.765 -7 7 C-7 5.68 -7 4.36 -7 3 C-2.92857143 0 -2.92857143 0 0 0 Z " fill="#E1CA9C" transform="translate(391,122)"/>
<path d="M0 0 C2.31 0.66 4.62 1.32 7 2 C6.12077066 3.46840364 5.22083011 4.9244174 4.3125 6.375 C3.81363281 7.18710938 3.31476563 7.99921875 2.80078125 8.8359375 C0.71393325 11.34377653 -0.97306117 11.925763 -4 13 C-4.33 13.66 -4.66 14.32 -5 15 C-6.32 13.68 -7.64 12.36 -9 11 C-8.236875 10.4225 -7.47375 9.845 -6.6875 9.25 C-3.28656383 6.4027046 -1.40282544 4.20847632 0 0 Z " fill="#1B1B17" transform="translate(282,117)"/>
<path d="M0 0 C0.2475 0.5775 0.495 1.155 0.75 1.75 C2.93188824 5.67739884 5.03400287 7.62846264 9.25 9.25 C10.1575 9.4975 11.065 9.745 12 10 C10.35 11.65 8.7 13.3 7 15 C1.57158595 11.95577773 -2.27450216 9.00613773 -6 4 C-4.02 3.34 -2.04 2.68 0 2 C0 1.34 0 0.68 0 0 Z " fill="#1D1D18" transform="translate(416,107)"/>
<path d="M0 0 C2.0625 1.375 2.0625 1.375 3.875 3.8125 C6.68767486 7.10734769 9.03145912 7.90211968 13.0625 9.375 C10.39690687 11.15206209 8.0344385 12.25048273 5.0625 13.375 C5.0625 12.715 5.0625 12.055 5.0625 11.375 C4.485 11.148125 3.9075 10.92125 3.3125 10.6875 C-0.7405772 8.32320497 -3.06091425 4.59731793 -4.9375 0.375 C-1.9375 -0.625 -1.9375 -0.625 0 0 Z " fill="#1A1A16" transform="translate(405.9375,115.625)"/>
<path d="M0 0 C0.33 0.66 0.66 1.32 1 2 C3.52733235 2.65555119 3.52733235 2.65555119 6 3 C3.62371351 8.03213609 0.84467413 9.62170542 -4 12 C-4.66 12 -5.32 12 -6 12 C-6.33 12.66 -6.66 13.32 -7 14 C-7.28875 13.195625 -7.5775 12.39125 -7.875 11.5625 C-8.73262568 8.8673532 -8.73262568 8.8673532 -11 8 C-10.06027344 7.63648437 -10.06027344 7.63648437 -9.1015625 7.265625 C-8.28429687 6.93046875 -7.46703125 6.5953125 -6.625 6.25 C-5.81289063 5.92515625 -5.00078125 5.6003125 -4.1640625 5.265625 C-1.66684861 3.80516056 -1.01755741 2.66130399 0 0 Z " fill="#201F1A" transform="translate(272,110)"/>
<path d="M0 0 C1.5 1.375 1.5 1.375 3 3 C3 3.66 3 4.32 3 5 C5.97 5.495 5.97 5.495 9 6 C9 6.66 9 7.32 9 8 C8.34 8 7.68 8 7 8 C6.67 9.98 6.34 11.96 6 14 C4.86800647 13.0919838 3.74467637 12.17316174 2.625 11.25 C1.99851562 10.73953125 1.37203125 10.2290625 0.7265625 9.703125 C-1.08860378 7.91259898 -1.90128789 6.27385637 -3 4 C-3.66 3.67 -4.32 3.34 -5 3 C-3.35 2.01 -1.7 1.02 0 0 Z " fill="#201F19" transform="translate(426,99)"/>
<path d="M0 0 C1.32 0.33 2.64 0.66 4 1 C3.525625 2.11375 3.05125 3.2275 2.5625 4.375 C-0.013951 11.92205695 0.24700377 20.10439686 0 28 C-0.33 28 -0.66 28 -1 28 C-2.1772179 23.32879936 -2.18361665 18.78428766 -2.1875 14 C-2.19974609 13.2059375 -2.21199219 12.411875 -2.22460938 11.59375 C-2.23541743 7.2705262 -2.00964267 3.93985282 0 0 Z " fill="#C7C7C7" transform="translate(41,246)"/>
<path d="M0 0 C1.5 1.375 1.5 1.375 3 3 C3 3.66 3 4.32 3 5 C3.66 5.33 4.32 5.66 5 6 C3.54550599 7.0055761 2.08627557 8.00430435 0.625 9 C-0.59316406 9.8353125 -0.59316406 9.8353125 -1.8359375 10.6875 C-4 12 -4 12 -6 12 C-6.33 12.66 -6.66 13.32 -7 14 C-7.66 12.02 -8.32 10.04 -9 8 C-8.071875 7.4225 -7.14375 6.845 -6.1875 6.25 C-3.40184158 4.28365288 -1.81261304 2.81962028 0 0 Z " fill="#1B1A16" transform="translate(264,100)"/>
<path d="M0 0 C3.47650799 2.93948643 3.76962342 5.51453657 4.140625 9.90234375 C4 12 4 12 2.1875 14.0625 C0 15 0 15 -2 15 C-2.05406122 13.06280622 -2.09282025 11.12518079 -2.125 9.1875 C-2.14820313 8.10855469 -2.17140625 7.02960938 -2.1953125 5.91796875 C-2 3 -2 3 0 0 Z " fill="#F3DAA8" transform="translate(254,78)"/>
<path d="M0 0 C1.98 0.66 3.96 1.32 6 2 C6 6 6 6 4.5625 7.6875 C0.84377125 9.59221473 -2.87204716 9.74420805 -7 10 C-6.21625 9.0925 -5.4325 8.185 -4.625 7.25 C-2.69947504 4.94809764 -1.17794259 2.78422793 0 0 Z " fill="#ECD3A3" transform="translate(300,126)"/>
<path d="M0 0 C0.66 0 1.32 0 2 0 C3.38226016 2.76452033 3.09525387 5.0461363 3.0625 8.125 C3.05347656 9.22070312 3.04445313 10.31640625 3.03515625 11.4453125 C3.02355469 12.28835937 3.01195312 13.13140625 3 14 C1.35 13.67 -0.3 13.34 -2 13 C-3.36882012 8.48289361 -2.52382612 5.40216435 -1 1 C-0.67 0.67 -0.34 0.34 0 0 Z " fill="#E7CFA0" transform="translate(435,75)"/>
<path d="M0 0 C0.99 0 1.98 0 3 0 C2.45154812 6.47173223 1.25940304 12.57774454 -0.28125 18.88671875 C-0.97995161 21.91315996 -1.52160124 24.93180794 -2 28 C-2.33 28 -2.66 28 -3 28 C-3.40846396 18.04558208 -2.46481617 9.65386332 0 0 Z " fill="#D7D8D8" transform="translate(29,225)"/>
<path d="M0 0 C0.99 0.33 1.98 0.66 3 1 C3 8.26 3 15.52 3 23 C-0.34131631 19.65868369 -0.93502634 16.01865483 -1.23046875 11.38671875 C-1.21628906 10.16597656 -1.20210937 8.94523437 -1.1875 7.6875 C-1.18105469 6.45386719 -1.17460937 5.22023438 -1.16796875 3.94921875 C-1 1 -1 1 0 0 Z " fill="#D9DADA" transform="translate(20,271)"/>
<path d="M0 0 C0 0.33 0 0.66 0 1 C-0.61488281 1.03738281 -1.22976563 1.07476562 -1.86328125 1.11328125 C-3.07564453 1.21189453 -3.07564453 1.21189453 -4.3125 1.3125 C-5.11300781 1.37050781 -5.91351563 1.42851562 -6.73828125 1.48828125 C-9.44136965 2.09986084 -10.11993331 3.02834031 -12 5 C-14.41015625 6.203125 -14.41015625 6.203125 -17.0625 7.25 C-18.37927734 7.78367188 -18.37927734 7.78367188 -19.72265625 8.328125 C-22 9 -22 9 -24 8 C-24 7.01 -24 6.02 -24 5 C-15.92094834 1.74044025 -8.84431307 -0.91703707 0 0 Z " fill="#1F2020" transform="translate(479,131)"/>
<path d="M0 0 C0.33 0 0.66 0 1 0 C1 2.64 1 5.28 1 8 C1.66 8 2.32 8 3 8 C3 14.27 3 20.54 3 27 C2.34 27 1.68 27 1 27 C-0.3300103 18.02243049 -0.08788039 9.05168034 0 0 Z " fill="#D2D3D3" transform="translate(110,312)"/>
<path d="M0 0 C6.79839071 -0.31620422 13.30983984 0.87323618 20 2 C20 2.66 20 3.32 20 4 C13.56688704 4.09507063 7.34241995 4.15316726 1 3 C0.67 2.01 0.34 1.02 0 0 Z " fill="#0A0A0A" transform="translate(247,157)"/>
<path d="M0 0 C0.4125 0.61875 0.825 1.2375 1.25 1.875 C3.05573879 4.06768281 4.4090534 4.92788417 7 6 C6.67 7.65 6.34 9.3 6 11 C0.25 9.25 0.25 9.25 -2 7 C-1.34 4.69 -0.68 2.38 0 0 Z " fill="#23211B" transform="translate(431,84)"/>
<path d="M0 0 C1.30324219 0.00773438 1.30324219 0.00773438 2.6328125 0.015625 C3.49648437 0.01046875 4.36015625 0.0053125 5.25 0 C7.86254827 0.27671851 9.5078213 0.9470255 11.7578125 2.265625 C9.54475339 4.47868411 4.53840883 3.71891698 1.54296875 3.88671875 C-1.37803183 3.9979144 -1.37803183 3.9979144 -3.2421875 6.265625 C-3.8671875 4.390625 -3.8671875 4.390625 -4.2421875 2.265625 C-2.2421875 0.265625 -2.2421875 0.265625 0 0 Z " fill="#0F1011" transform="translate(218.2421875,132.734375)"/>
<path d="M0 0 C1.4606285 2.64738916 2 3.89448334 2 7 C2.66 7 3.32 7 4 7 C3 9 3 9 1.15234375 9.6328125 C0.05599609 9.87644531 0.05599609 9.87644531 -1.0625 10.125 C-1.79597656 10.29257813 -2.52945313 10.46015625 -3.28515625 10.6328125 C-3.85105469 10.75398438 -4.41695312 10.87515625 -5 11 C-4.6875 8.125 -4.6875 8.125 -4 5 C-3.01 4.34 -2.02 3.68 -1 3 C-0.67 2.01 -0.34 1.02 0 0 Z " fill="#23221C" transform="translate(258,87)"/>
<path d="M0 0 C-0.99 0.33 -1.98 0.66 -3 1 C-2.67 1.66 -2.34 2.32 -2 3 C-5.96 3.99 -9.92 4.98 -14 6 C-14 5.34 -14 4.68 -14 4 C-14.66 3.67 -15.32 3.34 -16 3 C-14.08802961 2.29954544 -12.17019565 1.615081 -10.25 0.9375 C-9.18265625 0.55464844 -8.1153125 0.17179688 -7.015625 -0.22265625 C-4.07719958 -0.98010011 -2.77651052 -1.07151741 0 0 Z " fill="#2F2C2C" transform="translate(319,211)"/>
<path d="M0 0 C0.99 0 1.98 0 3 0 C2.67 4.29 2.34 8.58 2 13 C-0.47532211 10.52467789 -0.38704795 9.36068317 -0.6875 5.9375 C-0.77386719 5.03902344 -0.86023437 4.14054687 -0.94921875 3.21484375 C-0.96597656 2.48394531 -0.98273437 1.75304687 -1 1 C-0.67 0.67 -0.34 0.34 0 0 Z " fill="#EDEDED" transform="translate(49,255)"/>
<path d="M0 0 C3.63 0 7.26 0 11 0 C11.33 1.65 11.66 3.3 12 5 C11.01 5.495 11.01 5.495 10 6 C10 5.01 10 4.02 10 3 C6.37 3 2.74 3 -1 3 C-0.67 2.01 -0.34 1.02 0 0 Z " fill="#0C0C0C" transform="translate(470,132)"/>
<path d="M0 0 C0.66 0.66 1.32 1.32 2 2 C-7.41002278 4.29612756 -7.41002278 4.29612756 -12 4 C-11.67 3.34 -11.34 2.68 -11 2 C-10.01 2 -9.02 2 -8 2 C-8 1.34 -8 0.68 -8 0 C-4.71303767 -0.79953138 -3.28976808 -1.09658936 0 0 Z " fill="#1A1717" transform="translate(327,209)"/>
<path d="M0 0 C0.33 0 0.66 0 1 0 C3.29612756 13.6332574 3.29612756 13.6332574 3 20 C1.13437358 18.42702086 0.09761557 17.54489783 -0.34057617 15.09887695 C-0.32486572 14.40238037 -0.30915527 13.70588379 -0.29296875 12.98828125 C-0.28330078 12.23095703 -0.27363281 11.47363281 -0.26367188 10.69335938 C-0.23853516 9.90767578 -0.21339844 9.12199219 -0.1875 8.3125 C-0.17396484 7.51521484 -0.16042969 6.71792969 -0.14648438 5.89648438 C-0.11117089 3.93070033 -0.05736447 1.96526418 0 0 Z " fill="#C7C8C8" transform="translate(248,344)"/>
<path d="M0 0 C0.66 0.66 1.32 1.32 2 2 C-2.95 3.485 -2.95 3.485 -8 5 C-8 3.68 -8 2.36 -8 1 C-3.375 -1.125 -3.375 -1.125 0 0 Z " fill="#282424" transform="translate(463,135)"/>
<path d="M0 0 C0.99 0.33 1.98 0.66 3 1 C0.47043472 4.0916909 -2.22454612 4.90931332 -6 6 C-2.25 1.125 -2.25 1.125 0 0 Z " fill="#1E1B1B" transform="translate(291,220)"/>
<path d="M0 0 C0.66 0.33 1.32 0.66 2 1 C2 1.66 2 2.32 2 3 C1.01 3.495 1.01 3.495 0 4 C0 7.63 0 11.26 0 15 C-0.66 15 -1.32 15 -2 15 C-2.05406122 13.06280622 -2.09282025 11.12518079 -2.125 9.1875 C-2.14820313 8.10855469 -2.17140625 7.02960938 -2.1953125 5.91796875 C-2 3 -2 3 0 0 Z " fill="#C4B089" transform="translate(254,78)"/>
<path d="M0 0 C2.97 0.495 2.97 0.495 6 1 C5.01 1.495 5.01 1.495 4 2 C4 2.66 4 3.32 4 4 C1.36 3.67 -1.28 3.34 -4 3 C-2.68 2.67 -1.36 2.34 0 2 C0 1.34 0 0.68 0 0 Z " fill="#262424" transform="translate(243,155)"/>
</svg>
